<svg id="svg" fill="#feae01" stroke="#feae01" width="200" height="200" version="1.1" viewBox="144 144 512 512" xmlns="http://www.w3.org/2000/svg">
    <g id="IconSvg_bgCarrier" stroke-width="0"></g>
    <g id="IconSvg_tracerCarrier" stroke-linecap="round" stroke-linejoin="round" stroke="#CCCCCC" stroke-width="0">
      <g xmlns="http://www.w3.org/2000/svg">
  <path d="m353.74 558.89c0 16.363-13.266 29.633-29.629 29.633-16.367 0-29.633-13.27-29.633-29.633s13.266-29.629 29.633-29.629c16.363 0 29.629 13.266 29.629 29.629"></path>
  <path d="m567.96 558.89c0 16.363-13.266 29.633-29.633 29.633-16.363 0-29.629-13.27-29.629-29.633s13.266-29.629 29.629-29.629c16.367 0 29.633 13.266 29.633 29.629"></path>
  <path d="m596.67 265.81c-5.8398-7.3203-14.941-11.492-25-11.492h-281.58c-6.9141-29.992-20.547-42.855-45.297-42.855h-35.895c-6.707 0-12.121 5.4336-12.121 12.121 0 6.707 5.4141 12.137 12.121 12.137h35.895c8.9258 0 16.672 0 22.121 26.246 5.2578 25.191 31.094 161.17 31.363 162.54 0.82031 4.2812 2.4414 8.3125 4.582 12.074-15.445 5.6836-26.574 20.438-26.574 37.832 0 22.309 18.152 40.461 40.461 40.461h243.25c6.6914 0 12.137-5.4336 12.137-12.121 0-6.707-5.4492-12.137-12.137-12.137h-243.25c-8.9414 0-16.199-7.2734-16.199-16.215s7.2578-16.215 16.199-16.215h213.96c19.035 0 37.234-14.516 41.453-33.078l30.164-132.36c2.25-9.8281 0.17188-19.652-5.6562-26.941z"></path>
 </g>

      </g>
     <g id="IconSvg_iconCarrier">
      <g xmlns="http://www.w3.org/2000/svg">
  <path d="m353.74 558.89c0 16.363-13.266 29.633-29.629 29.633-16.367 0-29.633-13.27-29.633-29.633s13.266-29.629 29.633-29.629c16.363 0 29.629 13.266 29.629 29.629"></path>
  <path d="m567.96 558.89c0 16.363-13.266 29.633-29.633 29.633-16.363 0-29.629-13.27-29.629-29.633s13.266-29.629 29.629-29.629c16.367 0 29.633 13.266 29.633 29.629"></path>
  <path d="m596.67 265.81c-5.8398-7.3203-14.941-11.492-25-11.492h-281.58c-6.9141-29.992-20.547-42.855-45.297-42.855h-35.895c-6.707 0-12.121 5.4336-12.121 12.121 0 6.707 5.4141 12.137 12.121 12.137h35.895c8.9258 0 16.672 0 22.121 26.246 5.2578 25.191 31.094 161.17 31.363 162.54 0.82031 4.2812 2.4414 8.3125 4.582 12.074-15.445 5.6836-26.574 20.438-26.574 37.832 0 22.309 18.152 40.461 40.461 40.461h243.25c6.6914 0 12.137-5.4336 12.137-12.121 0-6.707-5.4492-12.137-12.137-12.137h-243.25c-8.9414 0-16.199-7.2734-16.199-16.215s7.2578-16.215 16.199-16.215h213.96c19.035 0 37.234-14.516 41.453-33.078l30.164-132.36c2.25-9.8281 0.17188-19.652-5.6562-26.941z"></path>
 </g>

      </g>
      </svg>