<svg id="svg" fill="#383838" stroke="#383838" width="200" height="200" version="1.1" viewBox="144 144 512 512" xmlns="http://www.w3.org/2000/svg">
    <g id="IconSvg_bgCarrier" stroke-width="0"></g>
    <g id="IconSvg_tracerCarrier" stroke-linecap="round" stroke-linejoin="round" stroke="#CCCCCC" stroke-width="0">
      <g xmlns="http://www.w3.org/2000/svg">
  <path d="m440.5 390.53c-1.0469-0.36719-2.1602-0.60938-3.3359-0.60938h-27.098v-95.008h27.102c5.5625 0 10.078-4.5156 10.078-10.078s-4.5156-10.078-10.078-10.078h-27.102v-29.66c0-5.5625-4.5156-10.078-10.078-10.078s-10.078 4.5156-10.078 10.078v29.66h-21.809c-37.309 0-67.656 30.355-67.656 67.668 0 34.379 25.805 62.789 59.055 67.035 1.0508 0.37109 2.1641 0.61328 3.3359 0.61328h27.074v95.004h-27.078c-5.5625 0-10.078 4.5156-10.078 10.078s4.5156 10.078 10.078 10.078h27.078v29.664c0 5.5625 4.5156 10.078 10.078 10.078s10.078-4.5156 10.078-10.078v-29.664h21.828c37.301 0 67.656-30.348 67.656-67.656 0-34.383-25.805-62.801-59.051-67.047zm-72.398-0.60938c-26.191 0-47.504-21.305-47.504-47.492 0-26.199 21.305-47.516 47.504-47.516h21.809l0.003906 95.008zm63.793 115.16h-21.828v-95.004h21.828c26.191 0 47.504 21.305 47.504 47.504s-21.312 47.5-47.504 47.5z"></path>
  <path d="m400 154.82c-135.2 0-245.18 109.99-245.18 245.18 0 135.2 109.99 245.18 245.18 245.18 135.2 0 245.18-109.99 245.18-245.18s-109.99-245.18-245.18-245.18zm0 470.21c-124.09 0-225.03-100.95-225.03-225.03 0-124.09 100.95-225.03 225.03-225.03 124.08 0 225.03 100.95 225.03 225.03 0 124.08-100.95 225.03-225.03 225.03z"></path>
 </g>

      </g>
     <g id="IconSvg_iconCarrier">
      <g xmlns="http://www.w3.org/2000/svg">
  <path d="m440.5 390.53c-1.0469-0.36719-2.1602-0.60938-3.3359-0.60938h-27.098v-95.008h27.102c5.5625 0 10.078-4.5156 10.078-10.078s-4.5156-10.078-10.078-10.078h-27.102v-29.66c0-5.5625-4.5156-10.078-10.078-10.078s-10.078 4.5156-10.078 10.078v29.66h-21.809c-37.309 0-67.656 30.355-67.656 67.668 0 34.379 25.805 62.789 59.055 67.035 1.0508 0.37109 2.1641 0.61328 3.3359 0.61328h27.074v95.004h-27.078c-5.5625 0-10.078 4.5156-10.078 10.078s4.5156 10.078 10.078 10.078h27.078v29.664c0 5.5625 4.5156 10.078 10.078 10.078s10.078-4.5156 10.078-10.078v-29.664h21.828c37.301 0 67.656-30.348 67.656-67.656 0-34.383-25.805-62.801-59.051-67.047zm-72.398-0.60938c-26.191 0-47.504-21.305-47.504-47.492 0-26.199 21.305-47.516 47.504-47.516h21.809l0.003906 95.008zm63.793 115.16h-21.828v-95.004h21.828c26.191 0 47.504 21.305 47.504 47.504s-21.312 47.5-47.504 47.5z"></path>
  <path d="m400 154.82c-135.2 0-245.18 109.99-245.18 245.18 0 135.2 109.99 245.18 245.18 245.18 135.2 0 245.18-109.99 245.18-245.18s-109.99-245.18-245.18-245.18zm0 470.21c-124.09 0-225.03-100.95-225.03-225.03 0-124.09 100.95-225.03 225.03-225.03 124.08 0 225.03 100.95 225.03 225.03 0 124.08-100.95 225.03-225.03 225.03z"></path>
 </g>

      </g>
      </svg>