<svg id="svg" fill="#383838" stroke="#383838" width="200" height="200" version="1.1" viewBox="144 144 512 512" xmlns="http://www.w3.org/2000/svg">
    <g id="IconSvg_bgCarrier" stroke-width="0"></g>
    <g id="IconSvg_tracerCarrier" stroke-linecap="round" stroke-linejoin="round" stroke="#CCCCCC" stroke-width="0">
      <g xmlns="http://www.w3.org/2000/svg">
  <path d="m400 357.65c-19.996 0-36.211 16.215-36.211 36.211s16.215 36.211 36.211 36.211 36.211-16.215 36.211-36.211c0-19.84-16.219-36.211-36.211-36.211zm213.17 19.207c-33.691-33.379-116.5-103.75-213.17-103.75-96.672 0-179.48 70.375-213.18 103.75-9.6055 9.4453-9.6055 24.875 0 34.32 33.852 33.379 116.51 103.6 213.18 103.6s179.48-70.375 213.18-103.6c9.6016-9.6016 9.6016-24.875-0.003906-34.32zm-213.17 89.582c-39.988 0-72.422-32.434-72.422-72.422s32.434-72.422 72.422-72.422 72.422 32.434 72.422 72.422-32.434 72.422-72.422 72.422z"></path>
  <path d="m286.01 198.32h-57.938c-19.68 0-35.895 16.059-35.895 35.895v57.938c0 10.078 8.1875 18.105 18.105 18.105 9.918 0 18.105-8.1875 18.105-18.105l-0.31641-57.621h57.938c10.078 0 18.105-8.1875 18.105-18.105 0-10.074-8.0312-18.105-18.105-18.105zm0 367.15-57.625 0.47266v-57.938c0-10.078-8.1875-18.105-18.105-18.105s-18.105 8.0273-18.105 17.945v57.938c0 19.68 16.059 35.895 35.895 35.895h57.938c10.078 0 18.105-8.1875 18.105-18.105 0.003907-9.9141-8.0273-18.102-18.102-18.102zm273.79-367.15h-57.938c-10.078 0-18.105 8.1875-18.105 18.105 0 10.078 8.1875 18.105 18.105 18.105l57.625-0.47266v57.938c0 10.078 8.1875 18.105 18.105 18.105 10.078 0 18.105-8.1875 18.105-18.105l-0.003907-57.938c0-19.68-16.059-35.738-35.895-35.738zm17.789 291.42c-10.078 0-18.105 8.1875-18.105 18.105l0.47266 57.625h-57.938c-10.078 0-18.105 8.1875-18.105 18.105 0 10.078 8.1875 18.105 18.105 18.105h57.938c19.68 0 35.895-16.059 35.895-35.895v-57.938c-0.15625-9.9219-8.3398-18.109-18.262-18.109z"></path>
 </g>

      </g>
     <g id="IconSvg_iconCarrier">
      <g xmlns="http://www.w3.org/2000/svg">
  <path d="m400 357.65c-19.996 0-36.211 16.215-36.211 36.211s16.215 36.211 36.211 36.211 36.211-16.215 36.211-36.211c0-19.84-16.219-36.211-36.211-36.211zm213.17 19.207c-33.691-33.379-116.5-103.75-213.17-103.75-96.672 0-179.48 70.375-213.18 103.75-9.6055 9.4453-9.6055 24.875 0 34.32 33.852 33.379 116.51 103.6 213.18 103.6s179.48-70.375 213.18-103.6c9.6016-9.6016 9.6016-24.875-0.003906-34.32zm-213.17 89.582c-39.988 0-72.422-32.434-72.422-72.422s32.434-72.422 72.422-72.422 72.422 32.434 72.422 72.422-32.434 72.422-72.422 72.422z"></path>
  <path d="m286.01 198.32h-57.938c-19.68 0-35.895 16.059-35.895 35.895v57.938c0 10.078 8.1875 18.105 18.105 18.105 9.918 0 18.105-8.1875 18.105-18.105l-0.31641-57.621h57.938c10.078 0 18.105-8.1875 18.105-18.105 0-10.074-8.0312-18.105-18.105-18.105zm0 367.15-57.625 0.47266v-57.938c0-10.078-8.1875-18.105-18.105-18.105s-18.105 8.0273-18.105 17.945v57.938c0 19.68 16.059 35.895 35.895 35.895h57.938c10.078 0 18.105-8.1875 18.105-18.105 0.003907-9.9141-8.0273-18.102-18.102-18.102zm273.79-367.15h-57.938c-10.078 0-18.105 8.1875-18.105 18.105 0 10.078 8.1875 18.105 18.105 18.105l57.625-0.47266v57.938c0 10.078 8.1875 18.105 18.105 18.105 10.078 0 18.105-8.1875 18.105-18.105l-0.003907-57.938c0-19.68-16.059-35.738-35.895-35.738zm17.789 291.42c-10.078 0-18.105 8.1875-18.105 18.105l0.47266 57.625h-57.938c-10.078 0-18.105 8.1875-18.105 18.105 0 10.078 8.1875 18.105 18.105 18.105h57.938c19.68 0 35.895-16.059 35.895-35.895v-57.938c-0.15625-9.9219-8.3398-18.109-18.262-18.109z"></path>
 </g>

      </g>
      </svg>