<svg id="svg" fill="#000000" stroke="#000000" width="200px" height="200px" version="1.1" viewBox="144 144 512 512" xmlns="http://www.w3.org/2000/svg">
    <g id="IconSvg_bgCarrier" stroke-width="0"></g>
    <g id="IconSvg_tracerCarrier" stroke-linecap="round" stroke-linejoin="round" stroke="#CCCCCC"></g>
     <g id="IconSvg_iconCarrier">
      <path xmlns="http://www.w3.org/2000/svg" d="m611.44 376.7-83.758 86.277 19.68 120.76v-0.003906c1.5 8.0078-0.16406 16.281-4.6367 23.09-4.4727 6.8047-11.406 11.613-19.352 13.414-7.9414 1.8008-16.273 0.45703-23.246-3.7539l-100.13-55.895-100.76 55.895c-4.8164 2.6641-10.242 4.0195-15.746 3.9336-6.4922-0.027343-12.816-2.0625-18.105-5.8242-4.9727-3.4414-8.8477-8.2383-11.164-13.824-2.3164-5.582-2.9766-11.715-1.9023-17.664l19.992-120.12-83.758-86.277c-5.4531-5.5508-8.6602-12.922-9-20.695-0.34375-7.7734 2.207-15.398 7.1523-21.402 4.9492-6.0039 11.945-9.9648 19.641-11.117l114.93-17.949 50.539-108c3.3594-7.3711 9.4258-13.164 16.941-16.176 7.5195-3.0117 15.906-3.0117 23.426 0 7.5156 3.0117 13.582 8.8047 16.941 16.176l49.594 108 114.46 17.633c7.6914 1.1523 14.688 5.1133 19.637 11.117 4.9453 6.0078 7.4961 13.629 7.1562 21.402-0.34375 7.7734-3.5508 15.145-9.0039 20.695z"></path>

      </g>
      </svg>