<svg width="109" height="109" viewBox="0 0 109 109" fill="none" xmlns="http://www.w3.org/2000/svg">
<path d="M54.5 0L93.0373 15.9627L109 54.5L93.0373 93.0373L54.5 109L15.9627 93.0373L0 54.5L15.9627 15.9627L54.5 0Z" fill="#FEAE01"/>
<path d="M57.1213 42.8787C55.9497 41.7071 54.0503 41.7071 52.8787 42.8787L33.7868 61.9706C32.6152 63.1421 32.6152 65.0416 33.7868 66.2132C34.9584 67.3848 36.8579 67.3848 38.0294 66.2132L55 49.2426L71.9706 66.2132C73.1421 67.3848 75.0416 67.3848 76.2132 66.2132C77.3848 65.0416 77.3848 63.1421 76.2132 61.9706L57.1213 42.8787ZM55 46L58 46L58 45L55 45L52 45L52 46L55 46Z" fill="white"/>
</svg>
