<svg id="svg" fill="#383838" stroke="#383838" width="200" height="200" version="1.1" viewBox="144 144 512 512" xmlns="http://www.w3.org/2000/svg">
    <g id="IconSvg_bgCarrier" stroke-width="0"></g>
    <g id="IconSvg_tracerCarrier" stroke-linecap="round" stroke-linejoin="round" stroke="#CCCCCC" stroke-width="0">
      <path xmlns="http://www.w3.org/2000/svg" d="m352.71 276.58 23.062 57.914c4.8672 12.152-6.3633 17.965-15.191 23.676-6.7227 4.3438-15.613 10.082-22.48 15.785-13.352 11.098 76.84 101.31 87.949 87.945 5.6992-6.8672 11.438-15.758 15.785-22.477 5.2734-8.168 11.582-20.012 23.184-15.438l58.398 23.32c5.3516 2.1367 8.6992 7.75 7.7656 13.664-9.2266 57.867-42.402 75.586-83.16 69.102-71.816-11.441-166.66-106.27-178.09-178.09-6.4688-40.621 11.094-73.695 68.488-83.055 5.8789-1.2539 11.98 1.875 14.289 7.6484z" fill-rule="evenodd"></path>

      </g>
     <g id="IconSvg_iconCarrier">
      <path xmlns="http://www.w3.org/2000/svg" d="m352.71 276.58 23.062 57.914c4.8672 12.152-6.3633 17.965-15.191 23.676-6.7227 4.3438-15.613 10.082-22.48 15.785-13.352 11.098 76.84 101.31 87.949 87.945 5.6992-6.8672 11.438-15.758 15.785-22.477 5.2734-8.168 11.582-20.012 23.184-15.438l58.398 23.32c5.3516 2.1367 8.6992 7.75 7.7656 13.664-9.2266 57.867-42.402 75.586-83.16 69.102-71.816-11.441-166.66-106.27-178.09-178.09-6.4688-40.621 11.094-73.695 68.488-83.055 5.8789-1.2539 11.98 1.875 14.289 7.6484z" fill-rule="evenodd"></path>

      </g>
      </svg>