<svg id="svg" fill="#383838" stroke="#383838" width="200" height="200" version="1.1" viewBox="144 144 512 512" xmlns="http://www.w3.org/2000/svg">
    <g id="IconSvg_bgCarrier" stroke-width="0"></g>
    <g id="IconSvg_tracerCarrier" stroke-linecap="round" stroke-linejoin="round" stroke="#CCCCCC" stroke-width="0">
      <g xmlns="http://www.w3.org/2000/svg">
  <path d="m463.46 441.96c-7.5781 9.1523-16.09 17.418-25.438 24.648 1.1797-0.88672 2.3125-1.7695 3.4922-2.707-10.527 8.0703-21.992 14.762-34.242 19.977 1.3789-0.58984 2.7539-1.1797 4.1328-1.7227-12.793 5.3633-26.223 9.0039-40 10.875 1.5234-0.19531 3.0508-0.39453 4.5742-0.64062-13.875 1.8203-27.945 1.8203-41.871-0.050781 1.5234 0.19531 3.0508 0.39453 4.5742 0.64062-13.531-1.8711-26.715-5.4609-39.312-10.727 1.3789 0.58984 2.7539 1.1797 4.1328 1.7227-12.449-5.2656-24.109-12.102-34.832-20.367 1.1797 0.88672 2.3125 1.7695 3.4922 2.707-10.527-8.168-19.926-17.664-28.094-28.191 0.88672 1.1797 1.7695 2.3125 2.707 3.4922-8.0703-10.527-14.809-21.992-20.023-34.195 0.58984 1.3789 1.1797 2.7539 1.7227 4.1328-5.3633-12.793-9.0547-26.176-10.922-39.949 0.19531 1.5234 0.39453 3.0508 0.64062 4.5742-1.8203-13.875-1.8203-27.898 0-41.77-0.19531 1.5234-0.39453 3.0508-0.64062 4.5742 1.8711-13.727 5.5586-27.16 10.922-39.949-0.58984 1.3789-1.1797 2.7539-1.7227 4.1328 5.2148-12.203 11.906-23.664 20.023-34.195-0.88672 1.1797-1.7695 2.3125-2.707 3.4922 8.2148-10.629 17.762-20.172 28.387-28.387-1.1797 0.88672-2.3125 1.7695-3.4922 2.707 10.527-8.0703 21.992-14.809 34.195-20.023-1.3789 0.58984-2.7539 1.1797-4.1328 1.7227 12.793-5.3633 26.176-9.0547 39.949-10.922-1.5234 0.19531-3.0508 0.39453-4.5742 0.64062 13.875-1.8203 27.898-1.8203 41.77 0-1.5234-0.19531-3.0508-0.39453-4.5742-0.64062 13.727 1.8711 27.16 5.5586 39.949 10.922-1.3789-0.58984-2.7539-1.1797-4.1328-1.7227 12.203 5.2148 23.664 11.906 34.195 20.023-1.1797-0.88672-2.3125-1.7695-3.4922-2.707 10.527 8.168 19.977 17.613 28.191 28.094-0.88672-1.1797-1.7695-2.3125-2.707-3.4922 8.2656 10.676 15.105 22.387 20.367 34.832-0.58984-1.3789-1.1797-2.7539-1.7227-4.1328 5.2656 12.594 8.8555 25.781 10.727 39.312-0.19531-1.5234-0.39453-3.0508-0.64062-4.5742 1.8711 13.875 1.8711 27.945 0.050781 41.871 0.19531-1.5234 0.39453-3.0508 0.64062-4.5742-1.8711 13.777-5.5117 27.207-10.875 40 0.58984-1.3789 1.1797-2.7539 1.7227-4.1328-5.1562 12.195-11.848 23.711-19.918 34.238 0.88672-1.1797 1.7695-2.3125 2.707-3.4922-1.082 1.3281-2.1133 2.6562-3.1992 3.9336-3 3.6406-5.0664 7.2812-5.0664 12.152 0 4.2305 1.8711 9.25 5.0664 12.152 3.2969 3 7.5781 5.2656 12.152 5.0664 4.2812-0.19531 9.3477-1.5742 12.152-5.0664 6.1016-7.4297 11.809-15.152 16.68-23.469 4.7227-8.0703 8.6094-16.582 12.102-25.238 6.4453-16.137 9.9375-33.258 11.219-50.578 2.6094-34.391-5.9023-69.816-23.418-99.484-17.859-30.309-45.461-55.547-77.688-69.766-8.4609-3.7383-17.074-7.0352-26.027-9.4453-8.707-2.3633-17.562-3.7891-26.52-4.8711-16.926-2.0664-33.949-1.082-50.727 1.8711-33.945 6.1016-65.973 23.32-90.379 47.723-24.453 24.5-41.723 56.629-47.723 90.824-2.9023 16.68-3.8359 33.555-1.8203 50.383 1.1328 9.1992 2.6094 18.254 5.0664 27.16 2.4102 8.8086 5.707 17.32 9.3984 25.684 14.27 32.227 39.605 59.777 69.914 77.59 29.719 17.418 65.141 25.879 99.531 23.223 17.32-1.3281 34.441-4.8711 50.527-11.367 17.711-7.0859 33.605-16.48 48.363-28.633 7.8242-6.4453 15.008-13.676 21.5-21.5 3-3.5898 5.0664-7.332 5.0664-12.152 0-4.2305-1.8711-9.25-5.0664-12.152-3.2969-3-7.5781-5.2656-12.152-5.0664-4.2773 0.14062-9.2461 1.5195-12.152 4.9609z"></path>
  <path d="m579.43 579.43c-0.98438 0.93359-2.0156 1.8711-3.1016 2.707 1.1797-0.88672 2.3125-1.7695 3.4922-2.707-1.918 1.4258-3.9375 2.6094-6.1484 3.5898 1.3789-0.58984 2.7539-1.1797 4.1328-1.7227-2.6562 1.1328-5.3633 1.8711-8.2148 2.2617 1.5234-0.19531 3.0508-0.39453 4.5742-0.64062-2.5586 0.29688-5.1172 0.29688-7.6758 0 1.5234 0.19531 3.0508 0.39453 4.5742 0.64062-2.8555-0.39453-5.5586-1.1328-8.2148-2.2617 1.3789 0.58984 2.7539 1.1797 4.1328 1.7227-2.1641-0.98438-4.2305-2.1641-6.1484-3.5898 1.1797 0.88672 2.3125 1.7695 3.4922 2.707-3.2461-2.5586-6.0508-5.6562-8.9531-8.6094l-53.086-53.086c-2.9531-2.9531-6.2969-5.7578-8.9062-9.0039 0.88672 1.1797 1.7695 2.3125 2.707 3.4922-0.097657-0.19531-0.19531-0.39453-0.29688-0.58984 0.58984 1.3789 1.1797 2.7539 1.7227 4.1328-0.050781-0.19531-0.097657-0.44141-0.14844-0.64062 0.19531 1.5234 0.39453 3.0508 0.64062 4.5742v-0.6875c-0.19531 1.5234-0.39453 3.0508-0.64062 4.5742 0.050781-0.19531 0.097657-0.44141 0.14844-0.64062-0.58984 1.3789-1.1797 2.7539-1.7227 4.1328 0.097657-0.19531 0.19531-0.39453 0.29688-0.58984-0.88672 1.1797-1.7695 2.3125-2.707 3.4922 1.1797-1.5234 2.707-2.8047 4.082-4.1836 3.0508-3.0508 6.1016-6.1016 9.1523-9.1523 6.9375-6.9375 13.824-13.824 20.762-20.762 1.7227-1.7227 3.3438-3.5898 5.2148-5.1172-1.1797 0.88672-2.3125 1.7695-3.4922 2.707 0.19531-0.097657 0.39453-0.19531 0.58984-0.29688-1.3789 0.58984-2.7539 1.1797-4.1328 1.7227 0.19531-0.050781 0.44141-0.097657 0.64062-0.14844-1.5234 0.19531-3.0508 0.39453-4.5742 0.64062h0.6875c-1.5234-0.19531-3.0508-0.39453-4.5742-0.64062 0.19531 0.050781 0.44141 0.097657 0.64062 0.14844-1.3789-0.58984-2.7539-1.1797-4.1328-1.7227 0.19531 0.097657 0.39453 0.19531 0.58984 0.29688-1.1797-0.88672-2.3125-1.7695-3.4922-2.707 2.6562 2.1172 4.9219 4.8203 7.2812 7.1836 5.5117 5.5117 11.02 11.02 16.531 16.531l36.652 36.652c3.3438 3.3438 6.9375 6.543 9.8906 10.184-0.88672-1.1797-1.7695-2.3125-2.707-3.4922 1.7227 2.2148 3.1016 4.5742 4.1836 7.1328-0.58984-1.3789-1.1797-2.7539-1.7227-4.1328 0.93359 2.3125 1.5742 4.6758 1.9688 7.1328-0.19531-1.5234-0.39453-3.0508-0.64062-4.5742 0.39453 2.9023 0.39453 5.7578 0 8.6602 0.19531-1.5234 0.39453-3.0508 0.64062-4.5742-0.39453 2.4609-1.0312 4.8203-1.9688 7.1328 0.58984-1.3789 1.1797-2.7539 1.7227-4.1328-1.082 2.5586-2.4609 4.9219-4.1836 7.1328 0.88672-1.1797 1.7695-2.3125 2.707-3.4922-0.64062 0.89453-1.4258 1.7773-2.2656 2.6133-6.2969 6.4453-6.8867 18.008 0 24.355 6.7891 6.25 17.613 6.8867 24.355 0 5.5117-5.6562 9.543-12.398 11.906-19.926 2.2617-7.3789 2.2617-14.906 1.0312-22.434-1.5234-9.4961-6.6914-18.254-13.43-25.043-6.3945-6.3945-12.793-12.793-19.188-19.188-15.844-15.844-31.391-32.078-47.578-47.578-8.168-7.8711-20.516-8.0195-28.832-0.19531-0.6875 0.64062-1.3281 1.3281-2.0156 2.0156-3.9375 3.9375-7.8242 7.8242-11.758 11.758-8.0195 8.0195-16.336 15.793-24.109 24.109-7.7734 8.3633-8.3164 20.516-0.34375 28.98 0.39453 0.39453 0.78906 0.78906 1.1797 1.1797l8.1172 8.1172c9.4453 9.4453 18.941 18.941 28.387 28.387 8.4609 8.4609 16.926 16.926 25.387 25.387 1.4258 1.4258 2.8555 2.9023 4.3281 4.3281 12.004 11.758 29.371 16.531 45.656 12.25 8.0195-2.1172 15.301-6.4961 21.207-12.25 6.4453-6.2969 6.7891-18.105 0-24.355-6.8828-6.2422-17.41-6.5859-24.301 0.10156z"></path>
  <path d="m453.23 477.59c10.281 10.281 20.516 20.516 30.801 30.801 1.4766 1.4766 2.9023 2.9023 4.3789 4.3789 6.3945 6.3945 18.055 6.8398 24.355 0 6.2969-6.8867 6.7891-17.562 0-24.355l-30.801-30.801c-1.4766-1.4766-2.9023-2.9023-4.3789-4.3789-6.3945-6.3945-18.055-6.8398-24.355 0-6.3008 6.8906-6.7891 17.566 0 24.355z"></path>
 </g>

      </g>
     <g id="IconSvg_iconCarrier">
      <g xmlns="http://www.w3.org/2000/svg">
  <path d="m463.46 441.96c-7.5781 9.1523-16.09 17.418-25.438 24.648 1.1797-0.88672 2.3125-1.7695 3.4922-2.707-10.527 8.0703-21.992 14.762-34.242 19.977 1.3789-0.58984 2.7539-1.1797 4.1328-1.7227-12.793 5.3633-26.223 9.0039-40 10.875 1.5234-0.19531 3.0508-0.39453 4.5742-0.64062-13.875 1.8203-27.945 1.8203-41.871-0.050781 1.5234 0.19531 3.0508 0.39453 4.5742 0.64062-13.531-1.8711-26.715-5.4609-39.312-10.727 1.3789 0.58984 2.7539 1.1797 4.1328 1.7227-12.449-5.2656-24.109-12.102-34.832-20.367 1.1797 0.88672 2.3125 1.7695 3.4922 2.707-10.527-8.168-19.926-17.664-28.094-28.191 0.88672 1.1797 1.7695 2.3125 2.707 3.4922-8.0703-10.527-14.809-21.992-20.023-34.195 0.58984 1.3789 1.1797 2.7539 1.7227 4.1328-5.3633-12.793-9.0547-26.176-10.922-39.949 0.19531 1.5234 0.39453 3.0508 0.64062 4.5742-1.8203-13.875-1.8203-27.898 0-41.77-0.19531 1.5234-0.39453 3.0508-0.64062 4.5742 1.8711-13.727 5.5586-27.16 10.922-39.949-0.58984 1.3789-1.1797 2.7539-1.7227 4.1328 5.2148-12.203 11.906-23.664 20.023-34.195-0.88672 1.1797-1.7695 2.3125-2.707 3.4922 8.2148-10.629 17.762-20.172 28.387-28.387-1.1797 0.88672-2.3125 1.7695-3.4922 2.707 10.527-8.0703 21.992-14.809 34.195-20.023-1.3789 0.58984-2.7539 1.1797-4.1328 1.7227 12.793-5.3633 26.176-9.0547 39.949-10.922-1.5234 0.19531-3.0508 0.39453-4.5742 0.64062 13.875-1.8203 27.898-1.8203 41.77 0-1.5234-0.19531-3.0508-0.39453-4.5742-0.64062 13.727 1.8711 27.16 5.5586 39.949 10.922-1.3789-0.58984-2.7539-1.1797-4.1328-1.7227 12.203 5.2148 23.664 11.906 34.195 20.023-1.1797-0.88672-2.3125-1.7695-3.4922-2.707 10.527 8.168 19.977 17.613 28.191 28.094-0.88672-1.1797-1.7695-2.3125-2.707-3.4922 8.2656 10.676 15.105 22.387 20.367 34.832-0.58984-1.3789-1.1797-2.7539-1.7227-4.1328 5.2656 12.594 8.8555 25.781 10.727 39.312-0.19531-1.5234-0.39453-3.0508-0.64062-4.5742 1.8711 13.875 1.8711 27.945 0.050781 41.871 0.19531-1.5234 0.39453-3.0508 0.64062-4.5742-1.8711 13.777-5.5117 27.207-10.875 40 0.58984-1.3789 1.1797-2.7539 1.7227-4.1328-5.1562 12.195-11.848 23.711-19.918 34.238 0.88672-1.1797 1.7695-2.3125 2.707-3.4922-1.082 1.3281-2.1133 2.6562-3.1992 3.9336-3 3.6406-5.0664 7.2812-5.0664 12.152 0 4.2305 1.8711 9.25 5.0664 12.152 3.2969 3 7.5781 5.2656 12.152 5.0664 4.2812-0.19531 9.3477-1.5742 12.152-5.0664 6.1016-7.4297 11.809-15.152 16.68-23.469 4.7227-8.0703 8.6094-16.582 12.102-25.238 6.4453-16.137 9.9375-33.258 11.219-50.578 2.6094-34.391-5.9023-69.816-23.418-99.484-17.859-30.309-45.461-55.547-77.688-69.766-8.4609-3.7383-17.074-7.0352-26.027-9.4453-8.707-2.3633-17.562-3.7891-26.52-4.8711-16.926-2.0664-33.949-1.082-50.727 1.8711-33.945 6.1016-65.973 23.32-90.379 47.723-24.453 24.5-41.723 56.629-47.723 90.824-2.9023 16.68-3.8359 33.555-1.8203 50.383 1.1328 9.1992 2.6094 18.254 5.0664 27.16 2.4102 8.8086 5.707 17.32 9.3984 25.684 14.27 32.227 39.605 59.777 69.914 77.59 29.719 17.418 65.141 25.879 99.531 23.223 17.32-1.3281 34.441-4.8711 50.527-11.367 17.711-7.0859 33.605-16.48 48.363-28.633 7.8242-6.4453 15.008-13.676 21.5-21.5 3-3.5898 5.0664-7.332 5.0664-12.152 0-4.2305-1.8711-9.25-5.0664-12.152-3.2969-3-7.5781-5.2656-12.152-5.0664-4.2773 0.14062-9.2461 1.5195-12.152 4.9609z"></path>
  <path d="m579.43 579.43c-0.98438 0.93359-2.0156 1.8711-3.1016 2.707 1.1797-0.88672 2.3125-1.7695 3.4922-2.707-1.918 1.4258-3.9375 2.6094-6.1484 3.5898 1.3789-0.58984 2.7539-1.1797 4.1328-1.7227-2.6562 1.1328-5.3633 1.8711-8.2148 2.2617 1.5234-0.19531 3.0508-0.39453 4.5742-0.64062-2.5586 0.29688-5.1172 0.29688-7.6758 0 1.5234 0.19531 3.0508 0.39453 4.5742 0.64062-2.8555-0.39453-5.5586-1.1328-8.2148-2.2617 1.3789 0.58984 2.7539 1.1797 4.1328 1.7227-2.1641-0.98438-4.2305-2.1641-6.1484-3.5898 1.1797 0.88672 2.3125 1.7695 3.4922 2.707-3.2461-2.5586-6.0508-5.6562-8.9531-8.6094l-53.086-53.086c-2.9531-2.9531-6.2969-5.7578-8.9062-9.0039 0.88672 1.1797 1.7695 2.3125 2.707 3.4922-0.097657-0.19531-0.19531-0.39453-0.29688-0.58984 0.58984 1.3789 1.1797 2.7539 1.7227 4.1328-0.050781-0.19531-0.097657-0.44141-0.14844-0.64062 0.19531 1.5234 0.39453 3.0508 0.64062 4.5742v-0.6875c-0.19531 1.5234-0.39453 3.0508-0.64062 4.5742 0.050781-0.19531 0.097657-0.44141 0.14844-0.64062-0.58984 1.3789-1.1797 2.7539-1.7227 4.1328 0.097657-0.19531 0.19531-0.39453 0.29688-0.58984-0.88672 1.1797-1.7695 2.3125-2.707 3.4922 1.1797-1.5234 2.707-2.8047 4.082-4.1836 3.0508-3.0508 6.1016-6.1016 9.1523-9.1523 6.9375-6.9375 13.824-13.824 20.762-20.762 1.7227-1.7227 3.3438-3.5898 5.2148-5.1172-1.1797 0.88672-2.3125 1.7695-3.4922 2.707 0.19531-0.097657 0.39453-0.19531 0.58984-0.29688-1.3789 0.58984-2.7539 1.1797-4.1328 1.7227 0.19531-0.050781 0.44141-0.097657 0.64062-0.14844-1.5234 0.19531-3.0508 0.39453-4.5742 0.64062h0.6875c-1.5234-0.19531-3.0508-0.39453-4.5742-0.64062 0.19531 0.050781 0.44141 0.097657 0.64062 0.14844-1.3789-0.58984-2.7539-1.1797-4.1328-1.7227 0.19531 0.097657 0.39453 0.19531 0.58984 0.29688-1.1797-0.88672-2.3125-1.7695-3.4922-2.707 2.6562 2.1172 4.9219 4.8203 7.2812 7.1836 5.5117 5.5117 11.02 11.02 16.531 16.531l36.652 36.652c3.3438 3.3438 6.9375 6.543 9.8906 10.184-0.88672-1.1797-1.7695-2.3125-2.707-3.4922 1.7227 2.2148 3.1016 4.5742 4.1836 7.1328-0.58984-1.3789-1.1797-2.7539-1.7227-4.1328 0.93359 2.3125 1.5742 4.6758 1.9688 7.1328-0.19531-1.5234-0.39453-3.0508-0.64062-4.5742 0.39453 2.9023 0.39453 5.7578 0 8.6602 0.19531-1.5234 0.39453-3.0508 0.64062-4.5742-0.39453 2.4609-1.0312 4.8203-1.9688 7.1328 0.58984-1.3789 1.1797-2.7539 1.7227-4.1328-1.082 2.5586-2.4609 4.9219-4.1836 7.1328 0.88672-1.1797 1.7695-2.3125 2.707-3.4922-0.64062 0.89453-1.4258 1.7773-2.2656 2.6133-6.2969 6.4453-6.8867 18.008 0 24.355 6.7891 6.25 17.613 6.8867 24.355 0 5.5117-5.6562 9.543-12.398 11.906-19.926 2.2617-7.3789 2.2617-14.906 1.0312-22.434-1.5234-9.4961-6.6914-18.254-13.43-25.043-6.3945-6.3945-12.793-12.793-19.188-19.188-15.844-15.844-31.391-32.078-47.578-47.578-8.168-7.8711-20.516-8.0195-28.832-0.19531-0.6875 0.64062-1.3281 1.3281-2.0156 2.0156-3.9375 3.9375-7.8242 7.8242-11.758 11.758-8.0195 8.0195-16.336 15.793-24.109 24.109-7.7734 8.3633-8.3164 20.516-0.34375 28.98 0.39453 0.39453 0.78906 0.78906 1.1797 1.1797l8.1172 8.1172c9.4453 9.4453 18.941 18.941 28.387 28.387 8.4609 8.4609 16.926 16.926 25.387 25.387 1.4258 1.4258 2.8555 2.9023 4.3281 4.3281 12.004 11.758 29.371 16.531 45.656 12.25 8.0195-2.1172 15.301-6.4961 21.207-12.25 6.4453-6.2969 6.7891-18.105 0-24.355-6.8828-6.2422-17.41-6.5859-24.301 0.10156z"></path>
  <path d="m453.23 477.59c10.281 10.281 20.516 20.516 30.801 30.801 1.4766 1.4766 2.9023 2.9023 4.3789 4.3789 6.3945 6.3945 18.055 6.8398 24.355 0 6.2969-6.8867 6.7891-17.562 0-24.355l-30.801-30.801c-1.4766-1.4766-2.9023-2.9023-4.3789-4.3789-6.3945-6.3945-18.055-6.8398-24.355 0-6.3008 6.8906-6.7891 17.566 0 24.355z"></path>
 </g>

      </g>
      </svg>