<svg id="svg" fill="#feae01" stroke="#feae01" width="200" height="200" version="1.1" viewBox="144 144 512 512" xmlns="http://www.w3.org/2000/svg">
    <g id="IconSvg_bgCarrier" stroke-width="0"></g>
    <g id="IconSvg_tracerCarrier" stroke-linecap="round" stroke-linejoin="round" stroke="#CCCCCC" stroke-width="0">
      <g xmlns="http://www.w3.org/2000/svg">
  <path d="m400 432.75c-30.73 0-53.906-25.191-68.52-75.57 0-0.50391-0.50391-1.5117-0.50391-2.0156-9.0703-1.0078-16.121-8.0625-17.129-17.129l-2.0156-18.137c-0.50391-6.0469 1.5117-12.09 5.0391-16.625 2.0156-2.0156 4.0312-4.0312 7.0547-5.0391 3.0195-42.32 39.797-64.488 76.074-64.488 36.273 0 73.051 22.168 76.074 64.992 2.5195 1.0078 5.0391 3.0234 7.0547 5.0391 4.0312 4.5352 6.0469 10.578 5.0391 16.625l-2.0156 18.137c-1.0078 9.0703-8.0625 16.121-17.129 17.129 0 0.50391-0.50391 1.0078-0.50391 2.0156-14.613 49.875-37.789 75.066-68.52 75.066z"></path>
  <path d="m548.12 566.25h-296.24c-5.543 0-11.082-2.5195-14.609-7.0547-3.5273-4.5352-4.5352-10.078-2.5195-15.617 15.113-48.871 81.113-99.25 165.25-99.25 84.641 0 150.64 50.383 165.25 99.25 1.5117 5.543 0.50391 11.082-2.5195 15.617-3.5273 4.5391-8.5664 7.0547-14.613 7.0547z"></path>
 </g>

      </g>
     <g id="IconSvg_iconCarrier">
      <g xmlns="http://www.w3.org/2000/svg">
  <path d="m400 432.75c-30.73 0-53.906-25.191-68.52-75.57 0-0.50391-0.50391-1.5117-0.50391-2.0156-9.0703-1.0078-16.121-8.0625-17.129-17.129l-2.0156-18.137c-0.50391-6.0469 1.5117-12.09 5.0391-16.625 2.0156-2.0156 4.0312-4.0312 7.0547-5.0391 3.0195-42.32 39.797-64.488 76.074-64.488 36.273 0 73.051 22.168 76.074 64.992 2.5195 1.0078 5.0391 3.0234 7.0547 5.0391 4.0312 4.5352 6.0469 10.578 5.0391 16.625l-2.0156 18.137c-1.0078 9.0703-8.0625 16.121-17.129 17.129 0 0.50391-0.50391 1.0078-0.50391 2.0156-14.613 49.875-37.789 75.066-68.52 75.066z"></path>
  <path d="m548.12 566.25h-296.24c-5.543 0-11.082-2.5195-14.609-7.0547-3.5273-4.5352-4.5352-10.078-2.5195-15.617 15.113-48.871 81.113-99.25 165.25-99.25 84.641 0 150.64 50.383 165.25 99.25 1.5117 5.543 0.50391 11.082-2.5195 15.617-3.5273 4.5391-8.5664 7.0547-14.613 7.0547z"></path>
 </g>

      </g>
      </svg>